<svg width="412" height="375" viewBox="0 0 412 375" fill="none" xmlns="http://www.w3.org/2000/svg">
<path d="M336.455 257.316V210.891L299.179 187.688L261.911 210.891V257.316L299.179 280.528L336.455 257.316Z" stroke="#F6F4FF" stroke-opacity="0.1" stroke-width="2" stroke-miterlimit="10"/>
<path d="M299.179 187.972V141.548L261.911 118.335L224.634 141.548V187.972L261.911 211.175L299.179 187.972Z" stroke="#F6F4FF" stroke-opacity="0.1" stroke-width="2" stroke-miterlimit="10"/>
<path d="M224.634 141.556V95.1322L187.366 71.9202L150.089 95.1322V141.556L187.366 164.768L224.634 141.556Z" stroke="#F6F4FF" stroke-opacity="0.1" stroke-width="2" stroke-miterlimit="10"/>
<path d="M224.634 234.388V187.972L187.366 164.76L150.089 187.972V234.388L187.366 257.6L224.634 234.388Z" stroke="#F6F4FF" stroke-opacity="0.1" stroke-width="2" stroke-miterlimit="10"/>
<path d="M187.366 164.476V118.052L150.09 94.8398L112.821 118.052V164.476L150.09 187.688L187.366 164.476Z" stroke="#F6F4FF" stroke-opacity="0.1" stroke-width="2" stroke-miterlimit="10"/>
<path d="M150.09 141.556V95.1322L112.821 71.9202L75.5449 95.1322V141.556L112.821 164.768L150.09 141.556Z" stroke="#F6F4FF" stroke-opacity="0.1" stroke-width="2" stroke-miterlimit="10"/>
<path d="M187.366 210.891V164.476L150.09 141.264L112.821 164.476V210.891L150.09 234.103L187.366 210.891Z" stroke="#F6F4FF" stroke-opacity="0.1" stroke-width="2" stroke-miterlimit="10"/>
<path d="M336.455 72.195V25.7795L299.179 2.56738L261.911 25.7795V72.195L299.179 95.4071L336.455 72.195Z" stroke="#F6F4FF" stroke-opacity="0.1" stroke-width="2" stroke-miterlimit="10"/>
<path d="M299.179 95.1321V48.7079L261.911 25.4958L224.634 48.7079V95.1321L261.911 118.344L299.179 95.1321Z" stroke="#F6F4FF" stroke-opacity="0.1" stroke-width="2" stroke-miterlimit="10"/>
<path d="M261.91 71.6276V25.2121L224.634 2L187.366 25.2121V71.6276L224.634 94.8397L261.91 71.6276Z" stroke="#F6F4FF" stroke-opacity="0.1" stroke-width="2" stroke-miterlimit="10"/>
<path d="M261.91 164.476V118.052L224.634 94.8398L187.366 118.052V164.476L224.634 187.688L261.91 164.476Z" stroke="#F6F4FF" stroke-opacity="0.1" stroke-width="2" stroke-miterlimit="10"/>
<path d="M150.09 234.388V187.972L112.821 164.76L75.5449 187.972V234.388L112.821 257.6L150.09 234.388Z" stroke="#F6F4FF" stroke-opacity="0.1" stroke-width="2" stroke-miterlimit="10"/>
<path d="M112.821 257.316V210.891L75.5449 187.688L38.2686 210.891V257.316L75.5449 280.528L112.821 257.316Z" stroke="#F6F4FF" stroke-opacity="0.1" stroke-width="2" stroke-miterlimit="10"/>
<path d="M299.179 280.812V234.388L261.911 211.176L224.634 234.388V280.812L261.911 304.024L299.179 280.812Z" stroke="#F6F4FF" stroke-opacity="0.1" stroke-width="2" stroke-miterlimit="10"/>
<path d="M224.634 280.812V234.388L187.366 211.176L150.089 234.388V280.812L187.366 304.024L224.634 280.812Z" stroke="#F6F4FF" stroke-opacity="0.1" stroke-width="2" stroke-miterlimit="10"/>
<path d="M373.723 327.235V280.811L336.455 257.599L299.179 280.811V327.235L336.455 350.447L373.723 327.235Z" stroke="#F6F4FF" stroke-opacity="0.1" stroke-width="2" stroke-miterlimit="10"/>
<path d="M336.001 350.164V303.74L298.724 280.528L261.456 303.74V350.164L298.724 373.368L336.001 350.164Z" stroke="#F6F4FF" stroke-opacity="0.1" stroke-width="2" stroke-miterlimit="10"/>
<path d="M373.723 234.388V187.972L336.455 164.76L299.179 187.972V234.388L336.455 257.6L373.723 234.388Z" stroke="#F6F4FF" stroke-opacity="0.1" stroke-width="2" stroke-miterlimit="10"/>
<path d="M411 164.476V118.052L373.723 94.8398L336.455 118.052V164.476L373.723 187.688L411 164.476Z" stroke="#F6F4FF" stroke-opacity="0.1" stroke-width="2" stroke-miterlimit="10"/>
<path d="M75.5447 280.812V234.387L38.2684 211.175L1 234.387V280.812L38.2684 304.024L75.5447 280.812Z" stroke="#F6F4FF" stroke-opacity="0.1" stroke-width="2" stroke-miterlimit="10"/>
<path d="M373.723 187.972V141.548L336.455 118.335L299.179 141.548V187.972L336.455 211.175L373.723 187.972Z" stroke="#F6F4FF" stroke-opacity="0.1" stroke-width="2" stroke-miterlimit="10"/>
<path d="M299.179 327.235V280.811L261.911 257.599L224.634 280.811V327.235L261.911 350.447L299.179 327.235Z" stroke="#F6F4FF" stroke-opacity="0.1" stroke-width="2" stroke-miterlimit="10"/>
</svg>
