<?xml version="1.0" encoding="utf-8"?><svg xmlns="http://www.w3.org/2000/svg" xmlns:xlink="http://www.w3.org/1999/xlink"><symbol viewBox="0 0 16 16" id="angle-down" xmlns="http://www.w3.org/2000/svg"><path d="M8 11.44L2.59 6.433h0a.692.692 0 00-.47-.182.692.692 0 00-.471.182h0a.626.626 0 00-.199.45.605.605 0 00.199.45v.001l5.864 5.428h0A.717.717 0 008 12.95c.18 0 .355-.067.486-.188h0l5.864-5.427s0 0 0 0a.626.626 0 00.2-.451.606.606 0 00-.2-.452.692.692 0 00-.47-.182.692.692 0 00-.48.193L8 11.44z"/></symbol><symbol viewBox="0 0 16 16" id="angle-left" xmlns="http://www.w3.org/2000/svg"><path d="M7.76 8l5.007 5.41a.692.692 0 01.182.471.692.692 0 01-.182.47.626.626 0 01-.45.199.605.605 0 01-.45-.198h-.001L6.439 8.486a.717.717 0 01-.189-.486c0-.18.067-.356.189-.487l5.426-5.864a.626.626 0 01.451-.2.605.605 0 01.452.2.692.692 0 01.182.47.692.692 0 01-.193.481l-4.997 5.4z"/></symbol><symbol viewBox="0 0 16 16" id="angle-right" xmlns="http://www.w3.org/2000/svg"><path d="M8.24 8L3.233 2.59a.692.692 0 01-.182-.471c0-.175.065-.343.182-.47a.626.626 0 01.45-.199.605.605 0 01.45.198h.001l5.427 5.865a.717.717 0 01.189.486c0 .18-.067.356-.189.487L4.135 14.35a.626.626 0 01-.451.2.606.606 0 01-.452-.2.692.692 0 01-.182-.47.692.692 0 01.193-.481l4.997-5.4z"/></symbol><symbol viewBox="0 0 16 16" id="angle-up" xmlns="http://www.w3.org/2000/svg"><path d="M8 4.56l5.41 5.007h0a.692.692 0 00.47.182.692.692 0 00.471-.182h0a.626.626 0 00.199-.45.606.606 0 00-.199-.45v-.001L8.487 3.239h0A.717.717 0 008 3.05a.717.717 0 00-.486.189h0L1.65 8.665s0 0 0 0a.626.626 0 00-.2.451.606.606 0 00.2.452.692.692 0 00.47.182.692.692 0 00.48-.193L8 4.56z"/></symbol><symbol viewBox="0 0 20 21" id="book" xmlns="http://www.w3.org/2000/svg"><path d="M15.833 2.167H5c-1.005 0-2.5.665-2.5 2.5v11.666c0 1.835 1.495 2.5 2.5 2.5h12.5v-1.666H5.01c-.385-.01-.843-.162-.843-.834 0-.671.458-.823.843-.833H17.5V3.833c0-.919-.747-1.666-1.667-1.666zm0 11.666H4.167V4.667c0-.672.458-.824.833-.834h10.833v10z"/></symbol><symbol viewBox="0 0 40 40" id="bookmark" xmlns="http://www.w3.org/2000/svg"><path d="M0 0v40l20-17.788L40 40V0H0z"/></symbol><symbol viewBox="0 0 16 17" id="calendar" xmlns="http://www.w3.org/2000/svg"><path d="M5.333 9.167a.667.667 0 110-1.334.667.667 0 010 1.334zM5.333 11.833a.667.667 0 110-1.333.667.667 0 010 1.333zM7.333 11.167a.667.667 0 101.334 0 .667.667 0 00-1.334 0zM10.667 11.833a.667.667 0 110-1.333.667.667 0 010 1.333zM7.333 8.5a.667.667 0 101.334 0 .667.667 0 00-1.334 0zM10.667 9.167a.667.667 0 110-1.334.667.667 0 010 1.334zM5.333 5.167a.667.667 0 100 1.333h5.334a.667.667 0 100-1.333H5.333z"/><path fill-rule="evenodd" clip-rule="evenodd" d="M4 2.5a2 2 0 00-2 2v8a2 2 0 002 2h8a2 2 0 002-2v-8a2 2 0 00-2-2H4zm8 1.333H4a.667.667 0 00-.667.667v8a.667.667 0 00.667.667h8a.667.667 0 00.667-.667v-8A.667.667 0 0012 3.833z"/></symbol><symbol viewBox="0 0 16 16" id="clock" xmlns="http://www.w3.org/2000/svg"><path d="M7.993 1.333A6.663 6.663 0 001.333 8c0 3.68 2.98 6.667 6.66 6.667A6.67 6.67 0 0014.667 8a6.67 6.67 0 00-6.674-6.667zm2.2 9.807l-2.86-2.867V4.667h1.334v3.06L11.14 10.2l-.947.94z"/></symbol><symbol viewBox="0 0 20 20" id="close" xmlns="http://www.w3.org/2000/svg"><path d="M5 5l9.428 9.428M5 14.428L14.428 5"/></symbol><symbol viewBox="0 0 20 21" id="contract" xmlns="http://www.w3.org/2000/svg"><path d="M6 2.5a2 2 0 00-2 2v5.126c.32-.083.655-.126 1-.126v-5a1 1 0 011-1h4V7a1.5 1.5 0 001.5 1.5H15v8a1 1 0 01-1 1H8v1h6a2 2 0 002-2V7.913a1.5 1.5 0 00-.44-1.06l-3.914-3.915a1.5 1.5 0 00-1.06-.438H6zm8.793 5H11.5A.5.5 0 0111 7V3.707L14.793 7.5zM8 13.5a3 3 0 11-6 0 3 3 0 016 0zm-1 3.464a3.982 3.982 0 01-2 .536 3.982 3.982 0 01-2-.535v2.286a.25.25 0 00.378.215L5 18.498l1.622.966A.25.25 0 007 19.25v-2.286z"/></symbol><symbol viewBox="0 0 16 16" id="copy" xmlns="http://www.w3.org/2000/svg"><path d="M9.6 16h-8A1.548 1.548 0 010 14.4v-8a1.547 1.547 0 011.6-1.6h3.2V1.6A1.547 1.547 0 016.4 0h8A1.547 1.547 0 0116 1.6v8a1.55 1.55 0 01-1.6 1.6h-3.2v3.2A1.546 1.546 0 019.6 16zm-8-9.6v8h8v-3.2H6.4a1.546 1.546 0 01-1.6-1.6V6.4H1.6zm4.8-4.8v8h8v-8h-8z"/></symbol><symbol viewBox="0 0 20 21" id="crossed" xmlns="http://www.w3.org/2000/svg"><path d="M15.833 5.5v8.75l1.625 1.625c.025-.125.042-.25.042-.375v-10c0-.917-.75-1.667-1.667-1.667H5.417L7.083 5.5h8.75zM3.217 3.792a.75.75 0 00-1.277.529.75.75 0 00.218.529l.342.35v10.3c0 .917.75 1.667 1.667 1.667h10.3l1.183 1.183a.75.75 0 001.058 0 .75.75 0 000-1.058L3.217 3.792zm.95 11.708V6.867L12.8 15.5H4.167z"/></symbol><symbol viewBox="0 0 16 16" id="currency" xmlns="http://www.w3.org/2000/svg"><path d="M8 1a7 7 0 10.001 14.001A7 7 0 008 1zm.348 10.394l.004.495a.127.127 0 01-.125.127h-.444a.125.125 0 01-.125-.125V11.4c-1.388-.103-2.04-.894-2.111-1.753a.125.125 0 01.125-.136h.722c.06 0 .114.044.123.103.08.495.466.866 1.158.958v-2.23l-.386-.098c-.817-.196-1.595-.705-1.595-1.761 0-1.14.865-1.752 1.972-1.86v-.515c0-.069.056-.125.125-.125h.439c.068 0 .125.056.125.125v.51c1.07.109 1.873.734 1.967 1.707a.125.125 0 01-.125.138h-.702a.125.125 0 01-.123-.108c-.063-.457-.428-.828-1.024-.91v2.099l.397.092c1.013.25 1.702.734 1.702 1.819 0 1.176-.875 1.832-2.099 1.939zM6.666 6.41c0 .397.245.705.773.895.074.03.147.053.234.078V5.447c-.576.073-1.007.397-1.007.964zm1.82 2.112a2.212 2.212 0 01-.138-.034v2.09c.666-.06 1.125-.426 1.125-1.038 0-.48-.248-.793-.987-1.018z"/></symbol><symbol viewBox="0 0 20 21" id="edit" xmlns="http://www.w3.org/2000/svg"><g clip-path="url(#anclip0_74_8321)"><path d="M5.602 13.465a.682.682 0 00.128-.012l3.51-.831 7.43-7.43a2.458 2.458 0 00-3.476-3.476l-7.43 7.43-.825 3.484-.006.026a.681.681 0 00.669.81zM6.899 9.78l7.18-7.18a1.208 1.208 0 011.707 1.71l-7.179 7.178-2.239.53.53-2.238zM18.438 15.188H1.563a.939.939 0 00-.938.937v2.813a.939.939 0 00.938.937h16.875a.939.939 0 00.937-.938v-2.812a.939.939 0 00-.938-.938zm-.313 3.437H1.875v-2.188h16.25v2.188z"/></g><defs><clipPath id="anclip0_74_8321"><path transform="translate(0 .5)" d="M0 0h20v20H0z"/></clipPath></defs></symbol><symbol viewBox="0 0 16 16" id="envelope" xmlns="http://www.w3.org/2000/svg"><path d="M13.571 3H2.43A.428.428 0 002 3.429V12c0 .237.192.429.429.429H13.57A.428.428 0 0014 12V3.429A.428.428 0 0013.571 3zM12.49 4.458L8.264 7.746a.288.288 0 01-.355 0L3.682 4.458a.096.096 0 01.06-.172h8.688a.097.097 0 01.06.172z"/></symbol><symbol viewBox="0 0 16 17" id="error" xmlns="http://www.w3.org/2000/svg"><path d="M7.333 2.5h2.4v8.4h-2.4V2.5zm0 9.6h2.4v2.4h-2.4v-2.4z"/></symbol><symbol viewBox="0 0 20 21" id="error-round" xmlns="http://www.w3.org/2000/svg"><path d="M20 10.5c0 5.533-4.467 10-10 10s-10-4.467-10-10S4.467.5 10 .5s10 4.467 10 10zM8.667 5.233l.6 6.267c.066.267.133.8.666.8h.2c.534 0 .667-.533.734-.867l.466-6.133c.067-.467 0-.8-.2-1.067-.2-.266-.533-.4-.866-.4H9.8c-.4 0-.667.134-.867.334-.266.266-.333.666-.266 1.066zm2.733 10.4c0-.8-.467-1.266-1.267-1.266h-.266c-.8 0-1.267.466-1.267 1.266v.2c0 .8.467 1.267 1.267 1.267h.266c.8 0 1.267-.467 1.267-1.267v-.2z"/></symbol><symbol viewBox="0 0 16 16" id="facebook" xmlns="http://www.w3.org/2000/svg"><path d="M8.666 6.667h2v2h-2v4.666h-2V8.667h-2v-2h2V5.83c0-.793.25-1.794.746-2.341a2.4 2.4 0 011.857-.822h1.397v2h-1.4a.6.6 0 00-.6.599v1.4z"/></symbol><symbol viewBox="0 0 20 21" id="info-round" xmlns="http://www.w3.org/2000/svg"><path fill-rule="evenodd" clip-rule="evenodd" d="M10 .5C4.467.5 0 4.967 0 10.5s4.467 10 10 10 10-4.467 10-10-4.467-10-10-10zm.952 8.25v7.204H9.02V8.75h1.93zM8.908 6.886c0-.289.095-.526.286-.713.195-.186.46-.28.792-.28.329 0 .59.094.786.28a.942.942 0 01.293.713.94.94 0 01-.3.719c-.195.186-.455.28-.779.28s-.586-.094-.785-.28a.95.95 0 01-.293-.72z"/></symbol><symbol viewBox="0 0 16 16" id="instagram" xmlns="http://www.w3.org/2000/svg"><path d="M13.965 5.537a4.352 4.352 0 00-.28-1.478 3.074 3.074 0 00-1.755-1.755 4.404 4.404 0 00-1.457-.28C9.83 1.995 9.628 1.987 8 1.987s-1.837 0-2.473.037c-.498.01-.99.105-1.457.28a3.071 3.071 0 00-1.755 1.755 4.37 4.37 0 00-.28 1.457c-.028.642-.037.845-.037 2.473s0 1.836.037 2.474c.01.498.104.99.28 1.458a3.073 3.073 0 001.756 1.754c.465.182.957.284 1.456.3.642.029.846.038 2.474.038 1.628 0 1.836 0 2.473-.038.498-.01.991-.104 1.457-.279a3.076 3.076 0 001.756-1.755c.175-.467.269-.959.279-1.458.029-.642.037-.845.037-2.474-.001-1.628-.001-1.834-.038-2.472zm-5.969 5.531a3.081 3.081 0 11-.001-6.163 3.081 3.081 0 01.001 6.163zm3.205-5.56a.718.718 0 11-.002-1.435.718.718 0 01.002 1.436z"/><path d="M7.996 9.988a2.002 2.002 0 100-4.004 2.002 2.002 0 000 4.004z"/></symbol><symbol viewBox="0 0 21 21" id="list" xmlns="http://www.w3.org/2000/svg"><path d="M4.042 3.833a1.875 1.875 0 00-1.875 1.875v2.084a1.875 1.875 0 001.875 1.875h2.083A1.875 1.875 0 008 7.792V5.708a1.875 1.875 0 00-1.875-1.875H4.042zm5.833.834a.625.625 0 100 1.25h8.333a.625.625 0 000-1.25H9.875zm0 2.5a.625.625 0 100 1.25h5.833a.625.625 0 000-1.25H9.875zm-5.833 4.166a1.875 1.875 0 00-1.875 1.875v2.084a1.875 1.875 0 001.875 1.875h2.083A1.875 1.875 0 008 15.292v-2.084a1.875 1.875 0 00-1.875-1.875H4.042zm5.833.834a.625.625 0 000 1.25h8.333a.625.625 0 100-1.25H9.875zm0 2.5a.625.625 0 000 1.25h5.833a.625.625 0 100-1.25H9.875z"/></symbol><symbol viewBox="0 0 16 16" id="location" xmlns="http://www.w3.org/2000/svg"><path d="M2 6.491a.5.5 0 00.315.473l4.8 1.92 1.92 4.801A.5.5 0 009.5 14h.008a.5.5 0 00.462-.329l4-11a.5.5 0 00-.64-.642l-11 4a.5.5 0 00-.33.463z"/></symbol><symbol viewBox="0 0 20 21" id="map" xmlns="http://www.w3.org/2000/svg"><path d="M10 13l.625-1.333V8.239C11.701 7.94 12.5 6.905 12.5 5.667 12.5 4.196 11.379 3 10 3S7.5 4.196 7.5 5.667c0 1.238.8 2.274 1.875 2.572v3.428L10 13z"/><path d="M12.667 9.25l-.333 1.265c1.62.47 2.666 1.372 2.666 2.3 0 1.241-2.053 2.624-5 2.624s-5-1.383-5-2.623c0-.929 1.047-1.832 2.667-2.302L7.334 9.25c-2.21.641-3.584 2.007-3.584 3.566 0 2.206 2.746 3.934 6.25 3.934s6.25-1.728 6.25-3.934c0-1.559-1.373-2.925-3.583-3.565z"/></symbol><symbol viewBox="0 0 20 20" id="messenger" xmlns="http://www.w3.org/2000/svg"><path d="M10 1.667c4.695 0 8.333 3.439 8.333 8.083S14.695 17.833 10 17.833a9.076 9.076 0 01-2.413-.32.667.667 0 00-.445.033l-1.653.73a.667.667 0 01-.936-.59l-.046-1.483a.664.664 0 00-.223-.475C2.662 14.28 1.667 12.181 1.667 9.75c0-4.644 3.639-8.083 8.333-8.083zM4.996 12.114c-.235.373.223.793.574.526l2.629-1.995a.5.5 0 01.603 0l1.947 1.458a1.25 1.25 0 001.807-.333l2.448-3.883c.235-.374-.223-.794-.574-.528L11.8 9.356a.5.5 0 01-.602 0L9.251 7.897a1.25 1.25 0 00-1.808.334l-2.447 3.883z"/></symbol><symbol viewBox="0 0 20 20" id="phone" xmlns="http://www.w3.org/2000/svg"><path d="M14.166 15.833H5.833V4.167h8.333v11.666zm0-15H5.833A1.66 1.66 0 004.166 2.5v15a1.667 1.667 0 001.667 1.667h8.334a1.666 1.666 0 001.666-1.667v-15A1.667 1.667 0 0014.166.833z"/></symbol><symbol viewBox="0 0 14 14" id="photo" xmlns="http://www.w3.org/2000/svg"><path d="M7 8.75a1.75 1.75 0 100-3.5 1.75 1.75 0 000 3.5z"/><path d="M11.667 2.333h-1.85l-.723-.787a1.161 1.161 0 00-.857-.38H5.763c-.326 0-.641.14-.863.38l-.717.787h-1.85A1.17 1.17 0 001.167 3.5v7a1.17 1.17 0 001.166 1.167h9.334a1.17 1.17 0 001.166-1.167v-7a1.17 1.17 0 00-1.166-1.167zM7 9.917a2.918 2.918 0 010-5.834 2.918 2.918 0 010 5.834z"/></symbol><symbol viewBox="0 0 512 512" id="play" xmlns="http://www.w3.org/2000/svg"><path d="M256 0C114.608 0 0 114.608 0 256s114.608 256 256 256 256-114.608 256-256S397.392 0 256 0zm0 496C123.664 496 16 388.336 16 256S123.664 16 256 16s240 107.664 240 240-107.664 240-240 240z"/><path d="M189.776 141.328v229.664L388.672 256.16z"/></symbol><symbol viewBox="0 0 16 16" id="remove" xmlns="http://www.w3.org/2000/svg"><path d="M2.4 1.6l12 12M2.4 13.6l12-12"/></symbol><symbol viewBox="0 0 16 16" id="room" xmlns="http://www.w3.org/2000/svg"><path d="M7.5 7.887L2 5.573v5.154a1.126 1.126 0 00.667 1.013L7.46 14h.04V7.887zM8 7l5.673-2.38a1.079 1.079 0 00-.34-.253l-4.8-2.247a1.247 1.247 0 00-1.066 0l-4.8 2.247a1.08 1.08 0 00-.34.253L8 7zm.5.887V14h.033l4.8-2.26A1.126 1.126 0 0014 10.733v-5.16L8.5 7.887z"/></symbol><symbol viewBox="0 0 20 20" id="sad-face" xmlns="http://www.w3.org/2000/svg"><g clip-path="url(#bdclip0_65_6559)"><path d="M18.74 20c-.346 0-.639-.141-.88-.424a1.5 1.5 0 01-.361-1.005c0-.729-.332-1.42-.996-2.076-.664-.654-1.579-1.186-2.744-1.595-1.165-.41-2.418-.614-3.759-.614-1.328 0-2.578.212-3.75.636-1.171.424-2.09.963-2.753 1.618-.664.655-.996 1.332-.996 2.031 0 .387-.124.722-.371 1.005-.247.283-.544.424-.889.424s-.638-.141-.878-.424A1.5 1.5 0 010 18.57c0-1.398.45-2.645 1.348-3.738.898-1.094 2.106-1.935 3.622-2.523 1.517-.588 3.193-.881 5.029-.881 1.836 0 3.512.293 5.029.881 1.516.588 2.724 1.429 3.622 2.523C19.55 15.926 20 17.173 20 18.57c0 .387-.124.722-.371 1.005-.248.283-.544.424-.889.424zM15 7.143c-.69 0-1.28-.35-1.768-1.05-.488-.699-.732-1.54-.732-2.522 0-.967.127-1.804.38-2.51.254-.708.544-1.061.87-1.061.455 0 .98.216 1.572.647.592.432 1.103.99 1.533 1.674.43.685.644 1.34.644 1.965 0 .937-.234 1.648-.703 2.131-.469.484-1.068.726-1.797.726zm-10 0c-.728 0-1.327-.242-1.796-.726-.469-.483-.703-1.194-.703-2.131 0-.625.215-1.28.644-1.965.43-.684.941-1.242 1.533-1.674C5.271.216 5.795 0 6.25 0c.326 0 .616.353.87 1.06.253.707.38 1.544.38 2.511 0 .983-.244 1.823-.732 2.523C6.28 6.794 5.69 7.143 5 7.143z"/></g><defs><clipPath id="bdclip0_65_6559"><path d="M0 0h20v20H0z"/></clipPath></defs></symbol><symbol viewBox="0 0 16 16" id="share" xmlns="http://www.w3.org/2000/svg"><path d="M2 8c0 1.103.897 2 2 2 .53 0 1.008-.21 1.366-.547l3.994 2.283c-.012.087-.027.173-.027.264 0 1.103.898 2 2 2 1.103 0 2-.897 2-2s-.897-2-2-2c-.529 0-1.008.21-1.366.547L5.973 8.265C5.985 8.177 6 8.09 6 8c0-.09-.015-.177-.027-.265l3.994-2.282c.358.337.837.547 1.366.547 1.103 0 2-.897 2-2s-.897-2-2-2c-1.102 0-2 .897-2 2 0 .09.015.177.027.265L5.366 6.547A1.988 1.988 0 004 6c-1.103 0-2 .897-2 2z"/></symbol><symbol viewBox="0 0 16 17" id="success" xmlns="http://www.w3.org/2000/svg"><path fill-rule="evenodd" clip-rule="evenodd" d="M14.66 3.84a1.5 1.5 0 010 2.12l-7.5 7.5a1.5 1.5 0 01-2.12 0l-4.5-4.5a1.5 1.5 0 112.12-2.12l3.44 3.439 6.44-6.44a1.5 1.5 0 012.12 0z"/></symbol><symbol viewBox="0 0 20 21" id="success-round" xmlns="http://www.w3.org/2000/svg"><path d="M10 .5C4.467.5 0 4.967 0 10.5s4.467 10 10 10 10-4.467 10-10-4.467-10-10-10zm5.667 5.733l-6.067 9.8c-.2.334-.6.6-1 .6-.333 0-.667-.2-.933-.466L3.933 11.5c-.266-.4-.266-.933.067-1.267.4-.4 1-.4 1.333-.066l3.2 2.866 5.667-7.8c.267-.4.867-.466 1.267-.2.4.2.466.8.2 1.2z"/></symbol><symbol viewBox="0 0 20 21" id="target" xmlns="http://www.w3.org/2000/svg"><path d="M17.45 9.667a7.494 7.494 0 00-6.617-6.617V1.333H9.167V3.05A7.495 7.495 0 002.55 9.667H.833v1.666H2.55a7.495 7.495 0 006.617 6.617v1.717h1.666V17.95a7.494 7.494 0 006.617-6.617h1.717V9.667H17.45zM10 16.333A5.83 5.83 0 014.167 10.5 5.829 5.829 0 0110 4.667a5.83 5.83 0 015.833 5.833A5.83 5.83 0 0110 16.333z"/></symbol><symbol viewBox="0 0 20 20" id="telegram" xmlns="http://www.w3.org/2000/svg"><path d="M18.7 3.852l-2.641 12.453c-.2.879-.72 1.098-1.457.684l-4.024-2.965-1.941 1.867c-.215.215-.395.395-.809.395l.29-4.098 7.456-6.738c.325-.289-.07-.45-.504-.16l-9.218 5.805-3.969-1.243c-.863-.269-.879-.863.18-1.277l15.523-5.98c.719-.27 1.348.16 1.113 1.257z"/></symbol><symbol viewBox="0 0 20 21" id="ul-list" xmlns="http://www.w3.org/2000/svg"><path d="M4.375 8a1.875 1.875 0 100-3.75 1.875 1.875 0 000 3.75zM4.375 16.75a1.875 1.875 0 100-3.75 1.875 1.875 0 000 3.75zM10 14.25h8.75v1.25H10v-1.25zM10 5.5h8.75v1.25H10V5.5z"/></symbol><symbol viewBox="0 0 20 20" id="viber" xmlns="http://www.w3.org/2000/svg"><path d="M16.67 14.738c-.786.694-1.923 1.192-3.412 1.494-1.49.301-3.025.39-4.605.264L5.65 18.75v-2.817c-.99-.307-1.763-.706-2.32-1.195-.66-.58-1.171-1.414-1.535-2.501a10.422 10.422 0 010-6.659c.364-1.087.878-1.924 1.543-2.51.666-.586 1.618-1.035 2.857-1.348 1.24-.313 2.508-.47 3.804-.47 1.296 0 2.564.157 3.804.47 1.239.313 2.191.762 2.857 1.348.665.586 1.18 1.423 1.543 2.51a10.421 10.421 0 010 6.659c-.364 1.087-.875 1.92-1.535 2.5zm-4.52-4.183l1.108.188c-.091-1.366-.617-2.533-1.578-3.5-.96-.968-2.123-1.497-3.488-1.588l.188 1.11a4.24 4.24 0 012.524 1.246 4.26 4.26 0 011.245 2.544zM8.566 7.909l.205 1.229c.455.227.79.563 1.006 1.007l1.228.205a3.123 3.123 0 00-.87-1.562 3.32 3.32 0 00-1.569-.88zM6.742 8.916V7.823a.977.977 0 00-.213-.58 1.4 1.4 0 00-.452-.419c-.16-.085-.279-.094-.358-.025l-.785.802c-.443.444-.509 1.136-.196 2.075.313.939.91 1.85 1.791 2.731.881.882 1.79 1.48 2.729 1.793.938.313 1.623.248 2.055-.196l.802-.803c.08-.068.077-.185-.008-.35a1.296 1.296 0 00-.418-.452 1 1 0 00-.58-.205h-1.092l-.631.546c-.5-.136-1.123-.577-1.868-1.323-.745-.745-1.185-1.374-1.322-1.887l.546-.614zm1.092-5.464l.17 1.11a6.317 6.317 0 013.156.897 6.478 6.478 0 012.303 2.304c.568.962.87 2.012.904 3.15l1.108.188a7.483 7.483 0 00-.605-2.97 7.682 7.682 0 00-1.63-2.442 7.675 7.675 0 00-2.438-1.63 7.464 7.464 0 00-2.968-.607z"/></symbol><symbol viewBox="0 0 14 14" id="video" xmlns="http://www.w3.org/2000/svg"><path d="M12.561 3.636l-2.45 1.38V3.112a.778.778 0 00-.778-.778h-7A1.556 1.556 0 00.778 3.89v6.222a1.556 1.556 0 001.555 1.556h7a.778.778 0 00.778-.778V8.976l2.45 1.38a.429.429 0 00.661-.334V3.967a.428.428 0 00-.66-.33z"/></symbol><symbol viewBox="0 0 22 20" id="warning-round" xmlns="http://www.w3.org/2000/svg"><path d="M21.924 17.752c0 .62-.306 1.24-.764 1.628a3.137 3.137 0 01-1.91.62H2.673c-.763 0-1.374-.155-1.91-.62A2.194 2.194 0 010 17.752v-.078c0-.155 0-.31.076-.387.077-.388.23-.775.459-1.163L8.785 1.55C9.319.62 10.083 0 11 0c.917 0 1.68.62 2.215 1.55l8.327 14.574c.229.388.382.775.458 1.163-.076.077-.076.232-.076.465 0-.078 0-.078 0 0 0-.078 0-.078 0 0zM9.854 6.822l.459 5.349c0 .232.076.697.534.697H11c.458 0 .535-.465.611-.697l.458-5.35c.077-.387 0-.697-.152-.93a1.158 1.158 0 00-.764-.31h-.382c-.306 0-.611.078-.764.31-.153.233-.23.543-.153.93zm2.292 8.914c0-.697-.382-1.085-1.07-1.085h-.229c-.687 0-1.07.388-1.07 1.085v.233c0 .698.383 1.085 1.07 1.085h.23c.687 0 1.069-.387 1.069-1.085v-.233z"/></symbol><symbol viewBox="0 0 16 16" id="youtube" xmlns="http://www.w3.org/2000/svg"><path d="M14.396 4.802a1.671 1.671 0 00-1.175-1.177C12.177 3.338 8 3.333 8 3.333s-4.177-.004-5.221.27a1.707 1.707 0 00-1.178 1.185c-.275 1.044-.278 3.21-.278 3.21s-.002 2.175.27 3.209a1.67 1.67 0 001.176 1.176c1.055.287 5.22.292 5.22.292s4.177.004 5.22-.269a1.676 1.676 0 001.179-1.175c.276-1.044.278-3.208.278-3.208s.013-2.177-.271-3.221zm-7.732 5.201l.004-4 3.47 2.004-3.474 1.996z"/></symbol></svg>